<?xml version="1.0" encoding="UTF-8" standalone="no"?><!DOCTYPE svg PUBLIC "-//W3C//DTD SVG 1.1//EN" "http://www.w3.org/Graphics/SVG/1.1/DTD/svg11.dtd"><svg width="100%" height="100%" viewBox="0 0 22716 4708" version="1.1" xmlns="http://www.w3.org/2000/svg" xmlns:xlink="http://www.w3.org/1999/xlink" xml:space="preserve" xmlns:serif="http://www.serif.com/" style="fill-rule:evenodd;clip-rule:evenodd;stroke-linejoin:round;stroke-miterlimit:2;"><rect id="Page-1" serif:id="Page 1" x="0" y="0" width="22715.208" height="4707.417" style="fill:none;"/><g id="Layer-1" serif:id="Layer 1"><path d="M2360.158,3932.144c871.5,0 1577.679,-706.862 1577.679,-1577.908c0,-871.446 -706.179,-1577.45 -1577.679,-1577.45c-871.267,-0 -1577.679,706.004 -1577.679,1577.45c0,871.046 706.413,1577.908 1577.679,1577.908" style="fill:#a50034;fill-rule:nonzero;"/><path d="M2297.529,1661.81l0,1383.067l439.529,0l0,-123.15l-314.017,0l0,-1259.917l-125.512,0Z" style="fill:#fff;fill-rule:nonzero;"/><path d="M1856.538,2039.377c104.65,0 189.421,-84.771 189.421,-188.904c0,-104.65 -84.771,-189.479 -189.421,-189.479c-103.846,0 -188.846,84.829 -188.846,189.479c0,104.133 85,188.904 188.846,188.904" style="fill:#fff;fill-rule:nonzero;"/><path d="M2423.027,1034.238c-16.137,-0.692 -47.6,-1.154 -62.754,-1.154c-727.842,0 -1320.258,592.588 -1320.258,1320.833c0,352.796 136.983,684.1 385.992,933.454c250.279,249.529 582.1,386.742 934.267,386.742c352.221,0 684.096,-137.213 934.321,-386.742c248.775,-249.354 385.812,-580.658 385.812,-933.454l0,-60.279l-52.612,0.404l-889.771,0l0,122.571l817.104,0l0,17.754c-41.954,622.783 -561.817,1116.479 -1194.854,1116.479c-319.608,0 -620.133,-124.421 -846.267,-350.438c-226.25,-226.071 -350.783,-526.829 -350.783,-846.492c0,-319.837 124.533,-620.537 350.783,-846.442c226.133,-226.533 526.658,-350.896 846.267,-350.896c14.463,0 48.404,0.292 62.754,0.633l0,-122.975Z" style="fill:#fff;fill-rule:nonzero;"/><path d="M5114.375,1325.835l-471.225,0l0,2039.796l1447.442,0l0,-397.171l-976.217,0l0,-1642.625Z" style="fill:#6b6b6b;fill-rule:nonzero;"/><path d="M7127.238,2588.189l383.517,0l0,356.483c-70.483,27.033 -208.387,54.117 -339.604,54.117c-424.254,0 -565.675,-215.588 -565.675,-653.213c0,-417.113 134.504,-663.067 558.7,-663.067c235.583,0 370.321,74.108 481.308,215.413l293.096,-269.062c-178.475,-255.867 -491.679,-333.321 -784.488,-333.321c-659.779,0 -1006.583,360.117 -1006.583,1046.637c0,683.35 313.033,1053.55 1003.242,1053.55c316.262,0 625.954,-80.679 794.454,-198.525l0,-989.529l-817.967,0l0,380.517Z" style="fill:#6b6b6b;fill-rule:nonzero;"/><path d="M21921.71,2038.245c-165.883,-75.979 -325.608,-123.588 -555.746,-123.588c-395.954,0 -606.333,168.279 -606.333,429.638c0,266.471 170.996,387.208 390.121,437.729l159.925,36.467c143.146,31.029 233.05,78.7 233.05,148.85c0,87.183 -89.904,132.004 -218.8,132.004c-162.838,0 -353.917,-53.371 -471.737,-120.733l-103.963,291.667c143.213,76.046 322.958,132.463 572.717,132.463c378.854,0 611.779,-149.238 611.779,-460.792c0,-207.596 -128.833,-325.483 -300.092,-376.133c-47.737,-13.992 -134.858,-39.25 -196.583,-53.113c-148.783,-31.025 -297.825,-61.987 -297.825,-174.108c0,-84.271 90.1,-129.221 236.029,-129.221c162.837,0 320.108,42.167 432.229,103.767l115.229,-274.896Zm-1283.075,56.092c-98.133,-101.175 -289.017,-179.679 -502.375,-179.679c-496.742,0 -732.575,224.504 -732.575,743.846c0,499.721 188.096,738.342 718.521,738.342c218.8,0 407.154,-53.371 510.858,-117.95l-84.142,-280.787c-103.958,50.717 -235.638,87.117 -390.25,87.117c-218.996,0 -359.296,-120.604 -359.296,-421.083c0,-325.546 120.675,-446.412 339.733,-446.412c120.8,0 224.304,50.588 292.058,112.317l207.467,-235.708Zm-1779.492,1268.958l406.9,0l0,-1414.954l-406.9,0l0,1414.954Zm-3.108,-1721.004l412.667,0l0,-328.2l-412.667,0l0,328.2Zm-1490.154,305.792l0,1415.213l406.963,0l0,-1041.671c50.654,-36.533 151.7,-73 236.033,-73c199.175,0 241.146,78.767 241.146,235.904l0,878.767l407.029,0l0,-976.963c0,-283.638 -100.979,-471.675 -440.646,-471.675c-157.267,0 -323.279,39.188 -469.208,129.221l0,-95.796l-381.317,0Zm-558.921,690.862c0,325.675 -61.858,463.121 -317.321,463.121c-213.358,0 -272.171,-165.688 -272.171,-449.196c0,-319.912 67.233,-446.475 314.337,-446.475c227.354,0 275.154,168.729 275.154,432.55m-266.667,-726.942c-516.754,0 -735.683,244.062 -735.683,738.017c0,463.383 157.396,746.825 676.737,746.825c502.504,0 738.146,-238.621 738.146,-732.704c0,-482.812 -157.071,-752.137 -679.2,-752.137m-1730.912,36.079l0,1415.213l406.962,0l0,-974.308c70.212,-89.579 199.113,-145.996 331.183,-145.996c73.129,0 154.35,19.692 199.175,44.887l92.883,-328.396c-61.925,-33.617 -165.625,-47.479 -261.033,-47.479c-137.642,0 -308.188,61.471 -395.242,176.633l0.129,-140.554l-374.058,0Zm-201.508,0l-474.587,0l0,-339.471l-401.392,66.325l0,273.146l-244.258,0l0,317.513l244.258,0l0,623.113c0,373.346 115.033,508.138 440.646,508.138c182.592,0 356.638,-39.317 491.104,-112.317l-58.817,-292.058c-86.921,45.083 -202.154,70.346 -283.379,70.346c-137.638,0 -188.162,-45.083 -188.162,-224.567l0,-569.933l474.587,0l0,-320.233Zm-1214.221,151.633c-98.325,-101.175 -289.208,-179.746 -502.633,-179.746c-496.933,0 -732.512,224.567 -732.512,743.846c0,499.654 188.033,738.146 718.454,738.146c218.996,0 407.096,-53.112 510.992,-117.692l-84.271,-280.85c-103.762,50.65 -235.771,87.05 -389.992,87.05c-218.996,0 -359.425,-120.604 -359.425,-420.887c0,-325.613 120.671,-446.479 339.667,-446.479c120.542,0 224.308,50.525 291.867,112.383l207.854,-235.771Zm-1754.1,384.812l-513.321,0c5.438,-196.458 100.654,-291.996 269.192,-291.996c185.638,0 244.129,120.608 244.129,291.996m401.587,114.646c0,-404.308 -182.4,-687.171 -634.446,-687.171c-451.983,0 -687.688,269.196 -687.688,735.233c0,494.083 179.742,749.608 707.183,749.608c250.087,0 480.096,-75.85 589.625,-148.521l-75.783,-266.992c-120.671,61.662 -297.696,106.808 -440.517,106.808c-143.212,0 -249.958,-42.037 -294.975,-90.033c-53.308,-58.812 -78.308,-154.287 -78.308,-252.483l914.908,0l0,-146.45Zm-1858.512,764.121l409.621,0l0,-2043.633l-409.621,0l0,2043.633Zm-1521.179,-2035.408l0,2035.408l1361.517,0l0,-353.917l-943.346,0l0,-522l878.896,0l0,-345.304l-878.896,0l0,-466.1l909.792,0l0,-348.087l-1327.963,0Z" style="fill:#6b6b6b;fill-rule:nonzero;"/></g></svg>